STARTFONT 2.1
FONT -sun-chevara-medium-r-normal--12-120-75-75-p-105-adobe-fontspecific
SIZE 12 75 75
FONTBOUNDINGBOX 26 17 -4 -4

STARTPROPERTIES 28
FOUNDRY "sun"
FAMILY_NAME "chevara"
WEIGHT_NAME "medium"
SLANT "r"
SETWIDTH_NAME "normal"
ADD_STYLE_NAME ""
PIXEL_SIZE 12
POINT_SIZE 120
RESOLUTION_X 75
RESOLUTION_Y 75
SPACING "p"
AVERAGE_WIDTH 105
CHARSET_REGISTRY "adobe"
CHARSET_ENCODING "fontspecific"
COPYRIGHT "© 1999 Sun Microsystems, Inc."
RAW_PIXELSIZE 1000
RAW_POINTSIZE 964
RAW_ASCENT 1047
RAW_DESCENT 285
RAW_AVERAGE_WIDTH 8445
FACE_NAME "ChevaraNormal"
_XMBDFED_INFO "Edited with xmbdfed 2.4."
WEIGHT 10
X_HEIGHT -1
QUAD_WIDTH 10
DEFAULT_CHAR 4
FONT_DESCENT 4
FONT_ASCENT 13
ENDPROPERTIES

CHARS 195

STARTCHAR char32
ENCODING 32
SWIDTH 50 0
DWIDTH 7 0
BBX 0 0 0 0
BITMAP
ENDCHAR

STARTCHAR char33
ENCODING 33
SWIDTH 35 0
DWIDTH 5 0
BBX 3 9 2 0
BITMAP
E0
E0
A0
60
40
40
00
E0
E0
ENDCHAR

STARTCHAR char34
ENCODING 34
SWIDTH 50 0
DWIDTH 7 0
BBX 5 4 2 5
BITMAP
D8
F8
48
10
ENDCHAR

STARTCHAR char35
ENCODING 35
SWIDTH 50 0
DWIDTH 7 0
BBX 7 9 0 0
BITMAP
24
24
36
28
28
38
C8
48
48
ENDCHAR

STARTCHAR char36
ENCODING 36
SWIDTH 27 0
DWIDTH 14 0
BBX 11 12 3 -2
BITMAP
0E00
3B40
4AC0
EA40
FFC0
7FC0
7F20
46E0
6660
DFC0
0600
0600
ENDCHAR

STARTCHAR char37
ENCODING 37
SWIDTH 63 0
DWIDTH 19 0
BBX 17 9 3 0
BITMAP
381000
6E1000
EE2000
E64F00
6E9900
3D9980
011980
021980
020F00
ENDCHAR

STARTCHAR char38
ENCODING 38
SWIDTH 27 0
DWIDTH 14 0
BBX 12 9 3 0
BITMAP
1E00
1900
1900
16F0
2EE0
6B80
E780
9380
7FC0
ENDCHAR

STARTCHAR char39
ENCODING 39
SWIDTH 28 0
DWIDTH 4 0
BBX 2 4 1 5
BITMAP
40
C0
C0
40
ENDCHAR

STARTCHAR char40
ENCODING 40
SWIDTH 43 0
DWIDTH 6 0
BBX 4 9 2 0
BITMAP
30
50
F0
E0
E0
A0
E0
60
30
ENDCHAR

STARTCHAR char41
ENCODING 41
SWIDTH 43 0
DWIDTH 6 0
BBX 5 9 1 0
BITMAP
C0
70
70
78
78
58
70
60
40
ENDCHAR

STARTCHAR char42
ENCODING 42
SWIDTH 35 0
DWIDTH 5 0
BBX 4 4 1 5
BITMAP
40
F0
40
70
ENDCHAR

STARTCHAR char43
ENCODING 43
SWIDTH 64 0
DWIDTH 9 0
BBX 7 7 2 0
BITMAP
10
10
10
FE
10
10
10
ENDCHAR

STARTCHAR char44
ENCODING 44
SWIDTH 28 0
DWIDTH 4 0
BBX 3 5 1 -2
BITMAP
40
A0
E0
60
80
ENDCHAR

STARTCHAR char45
ENCODING 45
SWIDTH 43 0
DWIDTH 6 0
BBX 5 1 1 4
BITMAP
F8
ENDCHAR

STARTCHAR char46
ENCODING 46
SWIDTH 28 0
DWIDTH 4 0
BBX 3 3 1 0
BITMAP
40
E0
E0
ENDCHAR

STARTCHAR char47
ENCODING 47
SWIDTH 57 0
DWIDTH 8 0
BBX 7 9 1 0
BITMAP
02
02
04
08
10
10
20
40
40
ENDCHAR

STARTCHAR char48
ENCODING 48
SWIDTH 20 0
DWIDTH 13 0
BBX 10 9 3 0
BITMAP
1E00
7380
6380
E3C0
E3C0
A240
E3C0
7280
3F00
ENDCHAR

STARTCHAR char49
ENCODING 49
SWIDTH 64 0
DWIDTH 9 0
BBX 7 9 2 0
BITMAP
18
F8
38
38
38
28
38
28
FE
ENDCHAR

STARTCHAR char50
ENCODING 50
SWIDTH 6 0
DWIDTH 11 0
BBX 10 9 2 0
BITMAP
3F00
C480
F780
5280
2700
0F40
3F80
4F80
7F80
ENDCHAR

STARTCHAR char51
ENCODING 51
SWIDTH 13 0
DWIDTH 12 0
BBX 10 9 2 0
BITMAP
3F00
7380
F380
2300
0D00
2280
D3C0
F2C0
3F00
ENDCHAR

STARTCHAR char52
ENCODING 52
SWIDTH 13 0
DWIDTH 12 0
BBX 10 9 2 0
BITMAP
0100
0300
0F00
3700
6700
4500
FFC0
0500
1FC0
ENDCHAR

STARTCHAR char53
ENCODING 53
SWIDTH 6 0
DWIDTH 11 0
BBX 9 9 2 0
BITMAP
3F80
2100
7E00
7E00
4380
4280
E180
E280
3F00
ENDCHAR

STARTCHAR char54
ENCODING 54
SWIDTH 13 0
DWIDTH 12 0
BBX 10 9 3 0
BITMAP
1F80
7780
E380
FF00
E380
A240
E3C0
7280
3F00
ENDCHAR

STARTCHAR char55
ENCODING 55
SWIDTH 6 0
DWIDTH 11 0
BBX 9 9 3 0
BITMAP
FF80
FF00
FE00
8200
0400
0C00
1800
2800
3800
ENDCHAR

STARTCHAR char56
ENCODING 56
SWIDTH 13 0
DWIDTH 12 0
BBX 10 9 3 0
BITMAP
3F00
6080
F880
BF00
6380
9CC0
83C0
8180
7F00
ENDCHAR

STARTCHAR char57
ENCODING 57
SWIDTH 13 0
DWIDTH 12 0
BBX 10 9 2 0
BITMAP
1F00
7980
F1C0
F1C0
7340
1DC0
39C0
2980
3F00
ENDCHAR

STARTCHAR char58
ENCODING 58
SWIDTH 35 0
DWIDTH 5 0
BBX 3 6 2 0
BITMAP
E0
E0
40
00
E0
60
ENDCHAR

STARTCHAR char59
ENCODING 59
SWIDTH 35 0
DWIDTH 5 0
BBX 3 8 2 -2
BITMAP
E0
E0
40
00
E0
A0
60
40
ENDCHAR

STARTCHAR char60
ENCODING 60
SWIDTH 57 0
DWIDTH 8 0
BBX 6 6 1 0
BITMAP
0C
70
80
C0
38
04
ENDCHAR

STARTCHAR char61
ENCODING 61
SWIDTH 64 0
DWIDTH 9 0
BBX 8 3 2 2
BITMAP
FF
00
FF
ENDCHAR

STARTCHAR char62
ENCODING 62
SWIDTH 57 0
DWIDTH 8 0
BBX 6 6 1 0
BITMAP
C0
30
0C
18
60
80
ENDCHAR

STARTCHAR char63
ENCODING 63
SWIDTH 57 0
DWIDTH 8 0
BBX 7 9 1 0
BITMAP
3C
66
AE
7E
1C
10
00
38
38
ENDCHAR

STARTCHAR char64
ENCODING 64
SWIDTH 27 0
DWIDTH 14 0
BBX 9 9 2 0
BITMAP
3E00
4100
DE80
A680
A480
A580
DE00
4100
3E00
ENDCHAR

STARTCHAR char65
ENCODING 65
SWIDTH 27 0
DWIDTH 14 0
BBX 13 9 2 0
BITMAP
0200
0300
0700
0D80
0B80
1240
3FE0
21E0
FBF0
ENDCHAR

STARTCHAR char66
ENCODING 66
SWIDTH 27 0
DWIDTH 14 0
BBX 11 9 3 0
BITMAP
FF80
7960
48A0
79C0
7F80
4960
79E0
7920
7FC0
ENDCHAR

STARTCHAR char67
ENCODING 67
SWIDTH 20 0
DWIDTH 13 0
BBX 10 9 3 0
BITMAP
1FC0
70C0
F040
E040
E000
A000
E040
5080
3F00
ENDCHAR

STARTCHAR char68
ENCODING 68
SWIDTH 34 0
DWIDTH 15 0
BBX 12 9 3 0
BITMAP
FF80
78E0
38F0
38F0
38F0
2890
38F0
28A0
7FC0
ENDCHAR

STARTCHAR char69
ENCODING 69
SWIDTH 27 0
DWIDTH 14 0
BBX 11 9 3 0
BITMAP
FFE0
7860
4820
7900
7F00
4900
7820
7860
FFE0
ENDCHAR

STARTCHAR char70
ENCODING 70
SWIDTH 20 0
DWIDTH 13 0
BBX 11 9 3 0
BITMAP
FFE0
4860
7820
7900
7F00
4900
7800
7800
FC00
ENDCHAR

STARTCHAR char71
ENCODING 71
SWIDTH 34 0
DWIDTH 15 0
BBX 13 9 3 0
BITMAP
1F40
70C0
7040
F000
F3F8
90E0
70E0
68A0
1FE0
ENDCHAR

STARTCHAR char72
ENCODING 72
SWIDTH 42 0
DWIDTH 16 0
BBX 15 9 3 0
BITMAP
FEFE
3870
2850
3870
3FF0
2850
3870
2850
FEFC
ENDCHAR

STARTCHAR char73
ENCODING 73
SWIDTH 64 0
DWIDTH 9 0
BBX 7 9 2 0
BITMAP
7E
38
28
38
38
28
38
38
F8
ENDCHAR

STARTCHAR char74
ENCODING 74
SWIDTH 71 0
DWIDTH 10 0
BBX 9 9 2 0
BITMAP
3F80
0E00
0A00
0E00
0E00
0A00
EE00
AA00
7C00
ENDCHAR

STARTCHAR char75
ENCODING 75
SWIDTH 42 0
DWIDTH 16 0
BBX 14 9 3 0
BITMAP
FEFC
2860
3840
3880
3FC0
2940
39E0
2890
FEFC
ENDCHAR

STARTCHAR char76
ENCODING 76
SWIDTH 20 0
DWIDTH 13 0
BBX 11 9 3 0
BITMAP
FE00
7800
4800
7800
7800
4800
7820
4860
7FE0
ENDCHAR

STARTCHAR char77
ENCODING 77
SWIDTH 63 0
DWIDTH 19 0
BBX 17 9 3 0
BITMAP
FC1F80
2C2E00
3E2E00
2F3E00
2B5E00
25D200
239E00
229E00
F91F00
ENDCHAR

STARTCHAR char78
ENCODING 78
SWIDTH 34 0
DWIDTH 15 0
BBX 13 9 3 0
BITMAP
F8F8
7420
5E20
4F20
45A0
4260
41E0
40A0
F060
ENDCHAR

STARTCHAR char79
ENCODING 79
SWIDTH 34 0
DWIDTH 15 0
BBX 12 9 3 0
BITMAP
0B80
3CE0
70F0
F0F0
F0F0
9090
70F0
28A0
1FC0
ENDCHAR

STARTCHAR char80
ENCODING 80
SWIDTH 27 0
DWIDTH 14 0
BBX 12 9 3 0
BITMAP
FFC0
78E0
4890
78F0
48E0
7F80
7800
4800
FE00
ENDCHAR

STARTCHAR char81
ENCODING 81
SWIDTH 34 0
DWIDTH 15 0
BBX 13 10 3 -1
BITMAP
1F80
38E0
70F0
F0F0
F0F0
9090
73F0
69E8
1FF0
0060
ENDCHAR

STARTCHAR char82
ENCODING 82
SWIDTH 27 0
DWIDTH 14 0
BBX 12 9 3 0
BITMAP
FFC0
48A0
78E0
79E0
7FC0
4A80
79C0
4940
FCE0
ENDCHAR

STARTCHAR char83
ENCODING 83
SWIDTH 27 0
DWIDTH 14 0
BBX 11 9 3 0
BITMAP
3F40
40C0
E040
FF40
40C0
7F20
40E0
6060
DFC0
ENDCHAR

STARTCHAR char84
ENCODING 84
SWIDTH 20 0
DWIDTH 13 0
BBX 12 9 2 0
BITMAP
FFF0
EF30
C910
8F10
0F00
0900
0F00
0900
1F00
ENDCHAR

STARTCHAR char85
ENCODING 85
SWIDTH 27 0
DWIDTH 14 0
BBX 12 9 3 0
BITMAP
FEF0
7840
4840
7840
7840
4840
7840
38C0
1F00
ENDCHAR

STARTCHAR char86
ENCODING 86
SWIDTH 27 0
DWIDTH 14 0
BBX 13 9 2 0
BITMAP
FE78
3C30
1C20
0E20
0B40
07C0
0480
0300
0300
ENDCHAR

STARTCHAR char87
ENCODING 87
SWIDTH 70 0
DWIDTH 20 0
BBX 19 9 3 0
BITMAP
FEFFC0
3C7980
144880
0E7C80
0A9D00
079700
050E00
020A00
020400
ENDCHAR

STARTCHAR char88
ENCODING 88
SWIDTH 34 0
DWIDTH 15 0
BBX 13 9 3 0
BITMAP
FFF0
38C0
2580
1E00
0B00
0480
1BC0
21E0
F1F0
ENDCHAR

STARTCHAR char89
ENCODING 89
SWIDTH 27 0
DWIDTH 14 0
BBX 13 9 2 0
BITMAP
FEF0
2C30
1220
0E40
0B80
0500
0700
0700
1F80
ENDCHAR

STARTCHAR char90
ENCODING 90
SWIDTH 13 0
DWIDTH 12 0
BBX 10 9 2 0
BITMAP
FFC0
E3C0
C580
0F00
1A00
1640
3C40
48C0
FFC0
ENDCHAR

STARTCHAR char91
ENCODING 91
SWIDTH 50 0
DWIDTH 7 0
BBX 4 9 3 0
BITMAP
F0
C0
C0
C0
C0
C0
C0
C0
F0
ENDCHAR

STARTCHAR char92
ENCODING 92
SWIDTH 28 0
DWIDTH 4 0
BBX 4 9 0 0
BITMAP
80
80
40
40
40
20
20
20
10
ENDCHAR

STARTCHAR char93
ENCODING 93
SWIDTH 50 0
DWIDTH 7 0
BBX 4 9 2 0
BITMAP
F0
70
70
70
70
50
70
50
70
ENDCHAR

STARTCHAR char94
ENCODING 94
SWIDTH 0 0
DWIDTH 0 0
BBX 5 3 -2 9
BITMAP
70
B0
B0
ENDCHAR

STARTCHAR char95
ENCODING 95
SWIDTH 50 0
DWIDTH 7 0
BBX 7 1 0 -2
BITMAP
FE
ENDCHAR

STARTCHAR char96
ENCODING 96
SWIDTH 0 0
DWIDTH 0 0
BBX 3 2 -2 8
BITMAP
40
40
ENDCHAR

STARTCHAR char97
ENCODING 97
SWIDTH 13 0
DWIDTH 12 0
BBX 11 7 2 0
BITMAP
0400
0C00
1A00
1500
3F00
2280
F7E0
ENDCHAR

STARTCHAR char98
ENCODING 98
SWIDTH 13 0
DWIDTH 12 0
BBX 10 7 2 0
BITMAP
7F80
3940
3D80
2B80
39C0
3940
3F80
ENDCHAR

STARTCHAR char99
ENCODING 99
SWIDTH 71 0
DWIDTH 10 0
BBX 9 7 2 0
BITMAP
3F80
7080
E080
A000
E080
7180
3E00
ENDCHAR

STARTCHAR char100
ENCODING 100
SWIDTH 20 0
DWIDTH 13 0
BBX 10 7 3 0
BITMAP
7F80
7180
71C0
5140
71C0
5180
FF00
ENDCHAR

STARTCHAR char101
ENCODING 101
SWIDTH 6 0
DWIDTH 11 0
BBX 10 7 2 0
BITMAP
FFC0
3840
3E00
2A00
3A40
39C0
3FC0
ENDCHAR

STARTCHAR char102
ENCODING 102
SWIDTH 71 0
DWIDTH 10 0
BBX 8 7 3 0
BITMAP
FF
E1
E4
BC
E4
A0
78
ENDCHAR

STARTCHAR char103
ENCODING 103
SWIDTH 13 0
DWIDTH 12 0
BBX 11 7 2 0
BITMAP
3F80
7080
B000
D3E0
F1C0
7140
1FC0
ENDCHAR

STARTCHAR char104
ENCODING 104
SWIDTH 27 0
DWIDTH 14 0
BBX 12 7 3 0
BITMAP
FFF0
71C0
71C0
5F40
71C0
5140
FBF0
ENDCHAR

STARTCHAR char105
ENCODING 105
SWIDTH 50 0
DWIDTH 7 0
BBX 6 7 2 0
BITMAP
FC
70
70
50
70
50
FC
ENDCHAR

STARTCHAR char106
ENCODING 106
SWIDTH 64 0
DWIDTH 9 0
BBX 8 7 2 0
BITMAP
1F
1C
1C
14
DC
D4
F8
ENDCHAR

STARTCHAR char107
ENCODING 107
SWIDTH 27 0
DWIDTH 14 0
BBX 12 7 3 0
BITMAP
FFE0
7100
7200
5D00
7780
5280
FBE0
ENDCHAR

STARTCHAR char108
ENCODING 108
SWIDTH 6 0
DWIDTH 11 0
BBX 10 7 2 0
BITMAP
3C00
3800
3800
2800
3840
28C0
FFC0
ENDCHAR

STARTCHAR char109
ENCODING 109
SWIDTH 34 0
DWIDTH 15 0
BBX 13 7 3 0
BITMAP
7078
68B0
5CF0
5550
4E70
4670
E670
ENDCHAR

STARTCHAR char110
ENCODING 110
SWIDTH 13 0
DWIDTH 12 0
BBX 11 7 2 0
BITMAP
FDC0
3E40
2F40
25C0
23C0
2140
60C0
ENDCHAR

STARTCHAR char111
ENCODING 111
SWIDTH 13 0
DWIDTH 12 0
BBX 11 7 2 0
BITMAP
3F80
71C0
F1E0
9120
F1E0
6940
1F80
ENDCHAR

STARTCHAR char112
ENCODING 112
SWIDTH 13 0
DWIDTH 12 0
BBX 10 7 2 0
BITMAP
3F80
39C0
3940
2F80
3800
2800
FC00
ENDCHAR

STARTCHAR char113
ENCODING 113
SWIDTH 13 0
DWIDTH 12 0
BBX 12 8 2 -1
BITMAP
3F80
71C0
F1E0
9120
F3E0
7750
1FE0
00C0
ENDCHAR

STARTCHAR char114
ENCODING 114
SWIDTH 13 0
DWIDTH 12 0
BBX 11 7 2 0
BITMAP
3F80
3940
3FC0
2900
3F80
2A80
3DE0
ENDCHAR

STARTCHAR char115
ENCODING 115
SWIDTH 6 0
DWIDTH 11 0
BBX 10 7 2 0
BITMAP
7F80
E080
FF00
7880
47C0
E0C0
5F80
ENDCHAR

STARTCHAR char116
ENCODING 116
SWIDTH 6 0
DWIDTH 11 0
BBX 10 7 2 0
BITMAP
FFC0
9C40
9C40
1400
1C00
1C00
1F00
ENDCHAR

STARTCHAR char117
ENCODING 117
SWIDTH 13 0
DWIDTH 12 0
BBX 11 7 2 0
BITMAP
FCC0
7080
7080
5080
7080
3080
1F00
ENDCHAR

STARTCHAR char118
ENCODING 118
SWIDTH 13 0
DWIDTH 12 0
BBX 11 7 2 0
BITMAP
FCC0
3880
1C80
1500
0E00
0A00
0400
ENDCHAR

STARTCHAR char119
ENCODING 119
SWIDTH 49 0
DWIDTH 17 0
BBX 15 7 3 0
BITMAP
FFFE
39C8
2AE8
16A8
1C70
0C50
0C20
ENDCHAR

STARTCHAR char120
ENCODING 120
SWIDTH 13 0
DWIDTH 12 0
BBX 11 7 2 0
BITMAP
7980
2D00
1600
0B00
1700
1380
FBE0
ENDCHAR

STARTCHAR char121
ENCODING 121
SWIDTH 13 0
DWIDTH 12 0
BBX 11 7 2 0
BITMAP
78E0
2880
1500
0A00
0E00
0A00
3F00
ENDCHAR

STARTCHAR char122
ENCODING 122
SWIDTH 71 0
DWIDTH 10 0
BBX 8 7 2 0
BITMAP
FF
8B
16
1C
39
53
FF
ENDCHAR

STARTCHAR char123
ENCODING 123
SWIDTH 35 0
DWIDTH 5 0
BBX 3 12 1 -3
BITMAP
60
40
40
40
C0
80
80
40
40
40
40
60
ENDCHAR

STARTCHAR char124
ENCODING 124
SWIDTH 28 0
DWIDTH 4 0
BBX 1 9 1 0
BITMAP
80
80
80
80
80
80
80
80
80
ENDCHAR

STARTCHAR char125
ENCODING 125
SWIDTH 35 0
DWIDTH 5 0
BBX 3 12 1 -3
BITMAP
80
40
40
40
40
20
40
40
40
40
40
C0
ENDCHAR

STARTCHAR char126
ENCODING 126
SWIDTH 0 0
DWIDTH 0 0
BBX 8 3 -4 9
BITMAP
31
7E
8C
ENDCHAR

STARTCHAR char128
ENCODING 128
SWIDTH 20 0
DWIDTH 13 0
BBX 11 9 2 0
BITMAP
0FE0
3860
7820
FFA0
7000
5000
7020
2840
1F80
ENDCHAR

STARTCHAR char130
ENCODING 130
SWIDTH 28 0
DWIDTH 4 0
BBX 3 5 1 -2
BITMAP
40
A0
E0
60
80
ENDCHAR

STARTCHAR char131
ENCODING 131
SWIDTH 0 0
DWIDTH 0 0
BBX 5 3 -2 9
BITMAP
70
B0
B0
ENDCHAR

STARTCHAR char132
ENCODING 132
SWIDTH 50 0
DWIDTH 7 0
BBX 6 3 1 -1
BITMAP
EC
6C
24
ENDCHAR

STARTCHAR char133
ENCODING 133
SWIDTH 20 0
DWIDTH 13 0
BBX 9 1 2 0
BITMAP
8880
ENDCHAR

STARTCHAR char134
ENCODING 134
SWIDTH 57 0
DWIDTH 8 0
BBX 6 7 2 1
BITMAP
78
14
D4
FC
94
30
38
ENDCHAR

STARTCHAR char136
ENCODING 136
SWIDTH 0 0
DWIDTH 0 0
BBX 4 2 -2 8
BITMAP
60
B0
ENDCHAR

STARTCHAR char139
ENCODING 139
SWIDTH 28 0
DWIDTH 4 0
BBX 2 5 1 1
BITMAP
40
40
80
40
40
ENDCHAR

STARTCHAR char140
ENCODING 140
SWIDTH 5 0
DWIDTH 21 0
BBX 18 9 4 0
BITMAP
1FFFC0
2870C0
505040
F07200
F07E00
905200
707040
2871C0
1FFFC0
ENDCHAR

STARTCHAR char145
ENCODING 145
SWIDTH 28 0
DWIDTH 4 0
BBX 2 4 1 5
BITMAP
40
C0
C0
40
ENDCHAR

STARTCHAR char146
ENCODING 146
SWIDTH 28 0
DWIDTH 4 0
BBX 2 3 1 6
BITMAP
C0
C0
40
ENDCHAR

STARTCHAR char147
ENCODING 147
SWIDTH 50 0
DWIDTH 7 0
BBX 6 4 1 5
BITMAP
48
B4
FC
4C
ENDCHAR

STARTCHAR char148
ENCODING 148
SWIDTH 50 0
DWIDTH 7 0
BBX 5 4 2 5
BITMAP
D8
F8
48
10
ENDCHAR

STARTCHAR char149
ENCODING 149
SWIDTH 28 0
DWIDTH 4 0
BBX 3 3 1 3
BITMAP
E0
E0
E0
ENDCHAR

STARTCHAR char150
ENCODING 150
SWIDTH 20 0
DWIDTH 13 0
BBX 10 1 3 4
BITMAP
FFC0
ENDCHAR

STARTCHAR char151
ENCODING 151
SWIDTH 64 0
DWIDTH 9 0
BBX 8 1 2 3
BITMAP
FF
ENDCHAR

STARTCHAR char152
ENCODING 152
SWIDTH 0 0
DWIDTH 0 0
BBX 6 2 -3 8
BITMAP
E4
98
ENDCHAR

STARTCHAR char153
ENCODING 153
SWIDTH 63 0
DWIDTH 19 0
BBX 15 8 4 5
BITMAP
FF86
A58C
21CC
214C
2154
2134
2124
73AE
ENDCHAR

STARTCHAR char155
ENCODING 155
SWIDTH 28 0
DWIDTH 4 0
BBX 2 5 1 1
BITMAP
80
80
40
C0
80
ENDCHAR

STARTCHAR char156
ENCODING 156
SWIDTH 56 0
DWIDTH 18 0
BBX 15 7 3 0
BITMAP
3FFE
71C2
71C8
D178
F1CA
69C2
1FFE
ENDCHAR

STARTCHAR char159
ENCODING 159
SWIDTH 27 0
DWIDTH 14 0
BBX 13 12 2 0
BITMAP
0580
0D80
0000
FEF0
2C30
1220
0E40
0B80
0500
0700
0700
1F80
ENDCHAR

STARTCHAR char160
ENCODING 160
SWIDTH 6 0
DWIDTH 11 0
BBX 0 0 0 0
BITMAP
ENDCHAR

STARTCHAR char161
ENCODING 161
SWIDTH 35 0
DWIDTH 5 0
BBX 3 9 1 0
BITMAP
60
A0
60
40
40
60
E0
E0
E0
ENDCHAR

STARTCHAR char162
ENCODING 162
SWIDTH 71 0
DWIDTH 10 0
BBX 9 10 2 -1
BITMAP
0800
0800
3780
7480
E480
E400
E480
6500
3F00
0400
ENDCHAR

STARTCHAR char163
ENCODING 163
SWIDTH 20 0
DWIDTH 13 0
BBX 11 9 2 0
BITMAP
0FE0
38A0
38E0
3840
7F80
2800
3820
38E0
FFE0
ENDCHAR

STARTCHAR char164
ENCODING 164
SWIDTH 0 0
DWIDTH 0 0
BBX 3 3 -1 9
BITMAP
60
40
80
ENDCHAR

STARTCHAR char165
ENCODING 165
SWIDTH 0 0
DWIDTH 0 0
BBX 4 3 -2 9
BITMAP
D0
F0
60
ENDCHAR

STARTCHAR char167
ENCODING 167
SWIDTH 6 0
DWIDTH 11 0
BBX 8 14 3 -4
BITMAP
02
7E
C2
F8
BE
7B
85
F3
8E
73
8D
C3
E2
9C
ENDCHAR

STARTCHAR char168
ENCODING 168
SWIDTH 0 0
DWIDTH 0 0
BBX 4 2 -2 8
BITMAP
F0
F0
ENDCHAR

STARTCHAR char169
ENCODING 169
SWIDTH 49 0
DWIDTH 17 0
BBX 13 13 4 0
BITMAP
0F80
3040
4020
4790
8888
9088
9008
9008
9008
8890
4710
2060
1F80
ENDCHAR

STARTCHAR char170
ENCODING 170
SWIDTH 0 0
DWIDTH 0 0
BBX 6 2 -3 10
BITMAP
48
7C
ENDCHAR

STARTCHAR char171
ENCODING 171
SWIDTH 43 0
DWIDTH 6 0
BBX 5 4 1 2
BITMAP
28
50
50
28
ENDCHAR

STARTCHAR char172
ENCODING 172
SWIDTH 34 0
DWIDTH 15 0
BBX 12 5 3 0
BITMAP
FFF0
0010
0010
0010
0010
ENDCHAR

STARTCHAR char174
ENCODING 174
SWIDTH 49 0
DWIDTH 17 0
BBX 13 13 4 0
BITMAP
0F80
3040
4020
5F10
8888
8988
8E08
8B08
8988
9CF0
4010
2060
1F80
ENDCHAR

STARTCHAR char176
ENCODING 176
SWIDTH 57 0
DWIDTH 8 0
BBX 6 6 2 7
BITMAP
38
44
84
84
48
30
ENDCHAR

STARTCHAR char177
ENCODING 177
SWIDTH 13 0
DWIDTH 12 0
BBX 10 12 2 0
BITMAP
0400
0400
0400
0400
FFC0
0400
0400
0400
0400
0400
0000
FFC0
ENDCHAR

STARTCHAR char180
ENCODING 180
SWIDTH 0 0
DWIDTH 0 0
BBX 2 2 0 8
BITMAP
80
80
ENDCHAR

STARTCHAR char182
ENCODING 182
SWIDTH 64 0
DWIDTH 9 0
BBX 6 11 1 -2
BITMAP
7C
E8
E8
E8
68
28
28
28
28
28
28
ENDCHAR

STARTCHAR char183
ENCODING 183
SWIDTH 28 0
DWIDTH 4 0
BBX 1 1 1 3
BITMAP
80
ENDCHAR

STARTCHAR char184
ENCODING 184
SWIDTH 0 0
DWIDTH 0 0
BBX 3 3 -1 -3
BITMAP
60
60
40
ENDCHAR

STARTCHAR char186
ENCODING 186
SWIDTH 0 0
DWIDTH 0 0
BBX 8 3 -4 9
BITMAP
31
7E
8C
ENDCHAR

STARTCHAR char187
ENCODING 187
SWIDTH 43 0
DWIDTH 6 0
BBX 5 4 1 2
BITMAP
50
28
28
50
ENDCHAR

STARTCHAR char191
ENCODING 191
SWIDTH 57 0
DWIDTH 8 0
BBX 7 9 2 0
BITMAP
18
2C
10
10
70
BE
CA
CE
7C
ENDCHAR

STARTCHAR char192
ENCODING 192
SWIDTH 27 0
DWIDTH 14 0
BBX 13 12 2 0
BITMAP
0600
0200
0200
0200
0300
0700
0D80
0BC0
1240
3FE0
21E0
FBF0
ENDCHAR

STARTCHAR char193
ENCODING 193
SWIDTH 27 0
DWIDTH 14 0
BBX 13 12 2 0
BITMAP
0300
0300
0200
0200
0300
0700
0D80
0BC0
1240
3FE0
21E0
FBF0
ENDCHAR

STARTCHAR char194
ENCODING 194
SWIDTH 27 0
DWIDTH 14 0
BBX 13 12 2 0
BITMAP
0300
0580
0580
0200
0300
0700
0D80
0BC0
1240
1FE0
20E0
FBF0
ENDCHAR

STARTCHAR char195
ENCODING 195
SWIDTH 27 0
DWIDTH 14 0
BBX 13 12 2 0
BITMAP
0620
1FC0
1180
0200
0300
0700
0D80
0B80
1240
1FE0
20E0
FBF0
ENDCHAR

STARTCHAR char196
ENCODING 196
SWIDTH 27 0
DWIDTH 14 0
BBX 13 12 2 0
BITMAP
0480
0DC0
0480
0200
0300
0700
0580
0BC0
12C0
1FE0
30E0
FBF0
ENDCHAR

STARTCHAR char197
ENCODING 197
SWIDTH 27 0
DWIDTH 14 0
BBX 13 12 2 0
BITMAP
0300
0500
0300
0200
0300
0700
0C80
0B40
1FC0
31E0
21E0
F1F0
ENDCHAR

STARTCHAR char198
ENCODING 198
SWIDTH 70 0
DWIDTH 20 0
BBX 18 9 3 0
BITMAP
01FFC0
01F0C0
029040
04F200
08FE00
089200
1FF040
3090C0
F9FFC0
ENDCHAR

STARTCHAR char199
ENCODING 199
SWIDTH 20 0
DWIDTH 13 0
BBX 10 12 3 -3
BITMAP
3FC0
70C0
F040
E040
E000
A000
E040
5080
3980
0E00
0E00
0800
ENDCHAR

STARTCHAR char200
ENCODING 200
SWIDTH 27 0
DWIDTH 14 0
BBX 11 12 3 0
BITMAP
0C00
0400
0400
FFE0
7860
4820
7900
7F00
4900
7820
7860
FFE0
ENDCHAR

STARTCHAR char201
ENCODING 201
SWIDTH 27 0
DWIDTH 14 0
BBX 11 12 3 0
BITMAP
0600
0400
0400
FFE0
7860
4820
7900
7F00
4900
7820
7860
FFE0
ENDCHAR

STARTCHAR char202
ENCODING 202
SWIDTH 27 0
DWIDTH 14 0
BBX 11 12 3 0
BITMAP
0600
0E00
0B00
FFE0
7860
4820
7900
7F00
4900
7820
7860
FFE0
ENDCHAR

STARTCHAR char203
ENCODING 203
SWIDTH 27 0
DWIDTH 14 0
BBX 11 12 3 0
BITMAP
1100
1B00
0000
FFE0
7860
4820
7900
7F00
4900
7820
7860
FFE0
ENDCHAR

STARTCHAR char204
ENCODING 204
SWIDTH 64 0
DWIDTH 9 0
BBX 7 12 2 0
BITMAP
70
10
10
6E
38
28
38
38
28
38
38
F8
ENDCHAR

STARTCHAR char205
ENCODING 205
SWIDTH 64 0
DWIDTH 9 0
BBX 7 12 2 0
BITMAP
18
10
10
6E
38
28
38
38
28
38
38
F8
ENDCHAR

STARTCHAR char206
ENCODING 206
SWIDTH 64 0
DWIDTH 9 0
BBX 7 12 2 0
BITMAP
18
38
4C
7E
38
28
38
38
28
38
38
F8
ENDCHAR

STARTCHAR char207
ENCODING 207
SWIDTH 64 0
DWIDTH 9 0
BBX 7 12 2 0
BITMAP
68
6C
68
5E
38
28
38
38
28
38
38
F8
ENDCHAR

STARTCHAR char209
ENCODING 209
SWIDTH 34 0
DWIDTH 15 0
BBX 13 12 3 0
BITMAP
0C40
1F80
2100
F8F8
6420
5E20
4F20
45A0
4260
41E0
40A0
F060
ENDCHAR

STARTCHAR char210
ENCODING 210
SWIDTH 34 0
DWIDTH 15 0
BBX 12 12 3 0
BITMAP
0C00
0600
0200
0B80
3CE0
5090
F0F0
F0F0
9090
70F0
28A0
1FC0
ENDCHAR

STARTCHAR char211
ENCODING 211
SWIDTH 34 0
DWIDTH 15 0
BBX 12 12 3 0
BITMAP
0300
0200
0200
0B80
3CE0
5090
F0F0
F0F0
9090
70F0
28A0
1FC0
ENDCHAR

STARTCHAR char212
ENCODING 212
SWIDTH 34 0
DWIDTH 15 0
BBX 12 12 3 0
BITMAP
0700
0B00
0980
1F80
28E0
5090
F0F0
F0F0
9090
70F0
28A0
1FC0
ENDCHAR

STARTCHAR char213
ENCODING 213
SWIDTH 34 0
DWIDTH 15 0
BBX 12 12 3 0
BITMAP
0C60
1F80
1100
1F80
28E0
5090
F0F0
F0F0
9090
70F0
28A0
1FC0
ENDCHAR

STARTCHAR char214
ENCODING 214
SWIDTH 34 0
DWIDTH 15 0
BBX 12 12 3 0
BITMAP
0900
1D80
0900
1F80
38E0
70F0
F0F0
F0F0
9090
70F0
28A0
1FC0
ENDCHAR

STARTCHAR char216
ENCODING 216
SWIDTH 34 0
DWIDTH 15 0
BBX 12 10 3 -1
BITMAP
1FE0
38E0
71E0
F2F0
F4F0
9C90
70F0
28A0
DFC0
4000
ENDCHAR

STARTCHAR char217
ENCODING 217
SWIDTH 27 0
DWIDTH 14 0
BBX 12 12 3 0
BITMAP
0C00
0400
0400
FEF0
7840
4840
7840
7840
4840
7840
38C0
1F00
ENDCHAR

STARTCHAR char218
ENCODING 218
SWIDTH 27 0
DWIDTH 14 0
BBX 12 12 3 0
BITMAP
0600
0600
0400
FEF0
7840
4840
7840
7840
4840
7840
38C0
1F00
ENDCHAR

STARTCHAR char219
ENCODING 219
SWIDTH 27 0
DWIDTH 14 0
BBX 12 12 3 0
BITMAP
0600
0B00
0B00
FEF0
7840
4840
7840
7840
4840
7840
38C0
1F00
ENDCHAR

STARTCHAR char220
ENCODING 220
SWIDTH 27 0
DWIDTH 14 0
BBX 12 12 3 0
BITMAP
0500
0D80
0000
FEF0
7840
4840
7840
7840
4840
7840
78C0
1F00
ENDCHAR

STARTCHAR char223
ENCODING 223
SWIDTH 63 0
DWIDTH 19 0
BBX 20 7 1 0
BITMAP
7F9FC0
E0B020
DFBF80
789C60
47D3F0
A0B030
5F9FE0
ENDCHAR

STARTCHAR char224
ENCODING 224
SWIDTH 13 0
DWIDTH 12 0
BBX 11 10 2 0
BITMAP
0800
0400
0400
0C00
0E00
1A00
1500
3F00
2280
F7E0
ENDCHAR

STARTCHAR char225
ENCODING 225
SWIDTH 13 0
DWIDTH 12 0
BBX 11 10 2 0
BITMAP
0600
0400
0400
0C00
0E00
1A00
1500
3F00
2280
F7E0
ENDCHAR

STARTCHAR char226
ENCODING 226
SWIDTH 13 0
DWIDTH 12 0
BBX 11 10 2 0
BITMAP
0E00
0A00
0400
0400
0E00
1A00
1500
3F00
2280
F7E0
ENDCHAR

STARTCHAR char227
ENCODING 227
SWIDTH 13 0
DWIDTH 12 0
BBX 11 10 2 0
BITMAP
1880
2700
0400
0400
0E00
1A00
1500
3F00
2280
F7E0
ENDCHAR

STARTCHAR char228
ENCODING 228
SWIDTH 13 0
DWIDTH 12 0
BBX 11 10 2 0
BITMAP
1B00
1B00
0400
0400
0E00
0A00
1F00
1F00
2380
F7C0
ENDCHAR

STARTCHAR char229
ENCODING 229
SWIDTH 13 0
DWIDTH 12 0
BBX 11 10 2 0
BITMAP
0E00
0E00
0400
0400
0E00
1A00
1500
3F00
4380
E7C0
ENDCHAR

STARTCHAR char230
ENCODING 230
SWIDTH 49 0
DWIDTH 17 0
BBX 14 7 4 0
BITMAP
0FFC
0B84
13A0
22E0
3FA4
429C
CFFC
ENDCHAR

STARTCHAR char231
ENCODING 231
SWIDTH 71 0
DWIDTH 10 0
BBX 9 11 2 -3
BITMAP
1E80
3180
7080
E080
A000
E080
7180
3E00
0C00
0C00
0800
ENDCHAR

STARTCHAR char232
ENCODING 232
SWIDTH 6 0
DWIDTH 11 0
BBX 10 10 2 0
BITMAP
0800
0800
0000
FFC0
2840
3A40
3E00
3A00
39C0
3FC0
ENDCHAR

STARTCHAR char233
ENCODING 233
SWIDTH 6 0
DWIDTH 11 0
BBX 10 10 2 0
BITMAP
0400
0400
0000
FFC0
2840
3A40
3E00
3A00
39C0
3FC0
ENDCHAR

STARTCHAR char234
ENCODING 234
SWIDTH 6 0
DWIDTH 11 0
BBX 10 10 2 0
BITMAP
0C00
0E00
0000
FFC0
2840
3A40
3E00
3A00
2840
FFC0
ENDCHAR

STARTCHAR char235
ENCODING 235
SWIDTH 6 0
DWIDTH 11 0
BBX 10 10 2 0
BITMAP
1E00
1E00
0000
FFC0
3840
3E00
2A00
3A40
28C0
FFC0
ENDCHAR

STARTCHAR char236
ENCODING 236
SWIDTH 50 0
DWIDTH 7 0
BBX 6 10 2 0
BITMAP
60
20
00
FC
70
70
50
70
50
FC
ENDCHAR

STARTCHAR char237
ENCODING 237
SWIDTH 50 0
DWIDTH 7 0
BBX 6 10 2 0
BITMAP
60
40
00
FC
70
70
50
70
50
FC
ENDCHAR

STARTCHAR char238
ENCODING 238
SWIDTH 50 0
DWIDTH 7 0
BBX 6 10 2 0
BITMAP
60
B0
00
FC
70
70
50
70
70
FC
ENDCHAR

STARTCHAR char239
ENCODING 239
SWIDTH 50 0
DWIDTH 7 0
BBX 6 10 2 0
BITMAP
58
78
00
FC
70
50
70
70
50
FC
ENDCHAR

STARTCHAR char241
ENCODING 241
SWIDTH 13 0
DWIDTH 12 0
BBX 11 10 2 0
BITMAP
1C80
1F00
0000
F9C0
3640
2B40
25C0
23C0
2140
60C0
ENDCHAR

STARTCHAR char242
ENCODING 242
SWIDTH 13 0
DWIDTH 12 0
BBX 11 10 2 0
BITMAP
0C00
0400
0000
3F80
71C0
F1E0
9120
F1E0
6940
1F80
ENDCHAR

STARTCHAR char243
ENCODING 243
SWIDTH 13 0
DWIDTH 12 0
BBX 11 10 2 0
BITMAP
0200
0400
0000
3F80
71C0
F1E0
9120
F1E0
6940
1F80
ENDCHAR

STARTCHAR char244
ENCODING 244
SWIDTH 13 0
DWIDTH 12 0
BBX 11 10 2 0
BITMAP
0600
0B00
0000
3F80
71C0
F1E0
9120
F1E0
6940
1F80
ENDCHAR

STARTCHAR char245
ENCODING 245
SWIDTH 13 0
DWIDTH 12 0
BBX 11 10 2 0
BITMAP
1E80
1F00
0000
3F80
71C0
F1E0
9120
F1E0
6940
1F80
ENDCHAR

STARTCHAR char246
ENCODING 246
SWIDTH 13 0
DWIDTH 12 0
BBX 11 10 2 0
BITMAP
0B00
1B00
0F00
3980
71C0
F1E0
9120
F1E0
7140
1F80
ENDCHAR

STARTCHAR char247
ENCODING 247
SWIDTH 13 0
DWIDTH 12 0
BBX 10 8 2 1
BITMAP
0C00
0C00
0000
FFC0
0000
0000
0C00
0C00
ENDCHAR

STARTCHAR char248
ENCODING 248
SWIDTH 13 0
DWIDTH 12 0
BBX 11 7 2 0
BITMAP
3F80
71C0
F7E0
9D20
71E0
3140
DF80
ENDCHAR

STARTCHAR char249
ENCODING 249
SWIDTH 13 0
DWIDTH 12 0
BBX 11 10 2 0
BITMAP
0800
0400
0000
FCC0
7080
3080
3080
3080
3080
1F00
ENDCHAR

STARTCHAR char250
ENCODING 250
SWIDTH 13 0
DWIDTH 12 0
BBX 11 10 2 0
BITMAP
0600
0400
0000
FCC0
7080
3080
3080
3080
3080
1F00
ENDCHAR

STARTCHAR char251
ENCODING 251
SWIDTH 13 0
DWIDTH 12 0
BBX 11 10 2 0
BITMAP
0E00
1200
0000
FCC0
7080
3080
3080
3080
3080
1F00
ENDCHAR

STARTCHAR char252
ENCODING 252
SWIDTH 13 0
DWIDTH 12 0
BBX 11 10 2 0
BITMAP
0F00
0F00
0000
FCC0
7080
3080
3080
3080
3080
1F00
ENDCHAR

STARTCHAR char255
ENCODING 255
SWIDTH 13 0
DWIDTH 12 0
BBX 11 10 2 0
BITMAP
1A00
1E00
0000
78E0
2880
1500
0A00
0E00
0E00
3F00
ENDCHAR
ENDFONT
